<svg version="1.1" id="Layer_1" xmlns="http://www.w3.org/2000/svg" xmlns:xlink="http://www.w3.org/1999/xlink" x="0px" y="0px"
	 width="100%" viewBox="0 0 800 800" enable-background="new 0 0 800 800" xml:space="preserve">
<path fill="#FFFFFF" opacity="1.000000" stroke="none" 
	d="
M452.000000,801.000000 
	C301.333344,801.000000 151.166672,801.000000 1.000000,801.000000 
	C1.000000,534.333313 1.000000,267.666656 1.000000,1.000000 
	C267.666656,1.000000 534.333313,1.000000 801.000000,1.000000 
	C801.000000,267.666656 801.000000,534.333313 801.000000,801.000000 
	C684.833313,801.000000 568.666687,801.000000 452.000000,801.000000 
M722.024658,301.238678 
	C711.679504,261.234955 694.097046,224.704361 669.426331,191.442001 
	C673.373901,224.546722 676.021973,257.592529 675.607056,291.645508 
	C674.871460,313.652863 672.691345,335.492096 668.303223,357.099854 
	C667.954590,358.816589 668.587708,361.071777 669.499695,362.652649 
	C677.869507,377.161774 681.515564,392.651398 681.180786,409.460449 
	C680.481567,444.563995 654.014709,478.471710 619.800171,486.999725 
	C616.185547,487.900726 613.757507,489.606049 611.647583,492.737457 
	C574.199341,548.313904 525.691650,591.435791 465.766022,621.553223 
	C417.484741,645.818604 366.266479,658.699036 312.304504,661.188843 
	C283.600800,662.513245 255.556946,657.518860 227.392822,653.448914 
	C217.426407,652.008667 207.489685,650.362976 196.847946,648.703247 
	C226.949707,674.496765 287.905487,708.389404 360.252563,716.510254 
	C412.867828,722.416260 464.434479,717.580505 514.313416,698.513367 
	C501.254608,667.816345 507.733948,642.771423 531.429443,630.268738 
	C552.051208,619.387878 582.825684,623.835999 597.851562,654.558044 
	C610.363281,643.446045 623.247681,633.125549 634.841003,621.515808 
	C690.224976,566.053467 722.288147,499.222076 731.117676,421.284363 
	C734.230347,393.808563 733.712708,366.368744 729.655945,339.071960 
	C727.805420,326.620361 724.565186,314.375336 722.024658,301.238678 
M652.641418,278.404816 
	C652.685242,277.076263 652.802917,275.745453 652.762146,274.419495 
	C651.662231,238.681961 647.947144,203.205017 641.683105,168.015579 
	C640.590454,161.877487 641.034180,155.169189 635.109009,150.377350 
	C619.619324,137.850403 605.049622,124.109749 588.999268,112.376808 
	C576.613708,103.322922 562.540833,96.577286 548.788513,88.248184 
	C539.511292,83.949760 530.234070,79.651344 520.057556,74.936264 
	C520.570435,77.435669 520.761292,78.704391 521.093567,79.934952 
	C527.694397,104.384201 532.487366,129.159698 535.377502,154.340607 
	C540.389771,198.010483 538.154175,241.210617 526.330933,283.576233 
	C499.707916,378.973236 442.492310,450.265503 355.166382,496.839752 
	C308.165039,521.907410 257.602051,534.638000 204.232239,534.991577 
	C174.349808,535.189575 144.826294,530.684998 115.324570,526.418945 
	C109.547287,525.583557 103.773613,524.723206 97.339783,523.777588 
	C98.001015,525.440979 98.263107,526.212891 98.606148,526.947083 
	C114.178642,560.275391 134.904587,590.073364 160.302597,616.629700 
	C161.773636,618.167847 164.133591,619.352966 166.246231,619.705627 
	C197.258820,624.882507 228.291901,629.938904 259.340302,634.897522 
	C265.736328,635.919067 272.214569,636.425842 279.966339,637.321411 
	C252.301086,614.933167 255.838837,584.047302 270.552216,567.014526 
	C286.235962,548.858337 314.290283,545.394714 333.733429,559.917358 
	C346.249603,569.266113 352.817810,581.872559 352.976715,597.581238 
	C353.136139,613.343140 345.926605,625.684143 333.639069,636.164978 
	C385.227631,631.519836 446.316315,612.342773 500.982971,573.776672 
	C533.851807,550.588440 562.339233,523.018372 585.668579,489.692169 
	C530.860168,480.104919 502.544983,428.572296 516.417480,382.150970 
	C523.458679,358.589142 538.229004,340.878479 560.339539,330.396423 
	C590.639160,316.032135 620.014893,319.571228 648.230835,338.702454 
	C649.074646,332.163513 650.154419,326.430450 650.492126,320.654053 
	C651.297363,306.880310 651.752197,293.086121 652.641418,278.404816 
M250.290543,507.892212 
	C262.040222,505.424377 273.789886,502.956543 285.539551,500.488708 
	C285.455536,499.981079 285.371552,499.473419 285.287567,498.965790 
	C284.345490,498.965790 283.402893,498.987152 282.461456,498.962646 
	C260.500519,498.391357 240.511169,491.947021 223.301346,478.144135 
	C189.976257,451.416168 186.312378,408.003052 214.906616,377.600586 
	C247.735657,342.695496 307.255280,339.309296 345.747711,369.704895 
	C377.047577,394.420868 382.435089,436.118927 358.235870,465.739258 
	C357.527649,466.606171 357.103088,467.704803 356.088593,469.509735 
	C483.187347,397.400360 539.967346,250.000961 504.763275,112.435684 
	C485.299622,137.340225 455.842743,136.053680 438.610321,123.772476 
	C429.175903,117.048759 422.843781,107.926407 420.216125,96.668427 
	C416.601746,81.182831 420.096985,67.069931 430.759369,54.041054 
	C391.787170,51.225307 354.243286,53.375858 316.415802,63.585220 
	C357.236053,99.372513 360.377289,143.674194 347.090485,191.730621 
	C378.760559,193.944733 395.348572,206.799637 399.607025,232.196609 
	C403.013489,252.512070 390.830688,273.908630 370.993988,282.116608 
	C360.610046,286.413239 349.799347,286.663910 339.172546,283.531403 
	C325.709198,279.562714 316.434509,270.298096 310.241699,258.290924 
	C301.197510,266.989563 292.843689,276.096252 283.412750,283.901520 
	C250.025742,311.533417 212.552002,329.071564 168.143616,328.130280 
	C141.638062,327.568451 118.262253,318.891113 98.977432,300.349060 
	C93.750954,295.323853 89.002518,289.801483 83.720291,284.172241 
	C72.159683,309.122711 63.104389,382.529083 68.344620,405.788269 
	C90.624535,407.880646 106.638481,418.979797 112.260117,440.928864 
	C118.650970,465.881317 107.983131,484.208710 84.892952,497.081512 
	C87.677887,497.944916 89.394920,498.725525 91.188820,498.995483 
	C112.248978,502.165161 133.311478,505.321991 154.391464,508.356415 
	C186.079529,512.917786 217.765961,513.488586 250.290543,507.892212 
M114.042892,215.558105 
	C107.069405,229.340927 100.112328,243.132095 93.106476,256.898438 
	C91.921570,259.226746 91.916420,260.920044 94.055588,262.972656 
	C99.699821,268.388580 104.595131,274.652893 110.577133,279.632111 
	C118.444870,286.180969 126.379883,293.282990 135.497025,297.574005 
	C159.621658,308.928375 184.705521,307.180908 209.525955,299.354736 
	C240.104919,289.712860 265.612518,272.196716 287.048859,248.499527 
	C308.716003,224.547241 324.059692,197.371109 329.442932,165.197189 
	C333.112457,143.265793 331.972412,121.532097 319.504486,102.587769 
	C312.202148,91.492294 301.815552,82.414383 292.653870,72.580284 
	C291.982086,71.859200 289.840240,71.944969 288.632721,72.369354 
	C267.708221,79.723465 247.632462,88.987007 228.688538,100.495232 
	C181.282913,129.293625 143.070724,167.362122 114.042892,215.558105 
M637.263245,422.631927 
	C641.059509,414.418427 641.182556,405.651489 639.639221,397.142395 
	C635.455017,374.073059 611.543030,358.557373 588.591309,363.453766 
	C564.526428,368.587677 549.358337,391.744293 554.707214,415.183655 
	C558.827271,433.238037 573.861023,447.198853 591.089294,448.969238 
	C611.588928,451.075775 628.100281,441.859558 637.263245,422.631927 
M294.524902,612.126831 
	C298.831970,613.087952 303.155243,614.914795 307.442810,614.834473 
	C317.101166,614.653564 324.039429,609.497803 327.900299,600.675354 
	C331.918854,591.492554 329.886169,581.278809 322.862000,574.462952 
	C315.733368,567.545715 307.097137,565.964539 297.976410,569.062012 
	C288.671326,572.222046 283.272156,579.239990 282.405670,589.070801 
	C281.545929,598.825439 285.473907,606.521179 294.524902,612.126831 
M355.989685,469.550476 
	C355.789154,469.487122 355.588654,469.423767 355.388123,469.360382 
	C355.457031,469.557251 355.525909,469.754089 355.989685,469.550476 
z"/>
<path fill="#237660" opacity="1.000000" stroke="none" 
	d="
M249.855804,507.936188 
	C217.765961,513.488586 186.079529,512.917786 154.391464,508.356415 
	C133.311478,505.321991 112.248978,502.165161 91.188820,498.995483 
	C89.394920,498.725525 87.677887,497.944916 84.892952,497.081512 
	C107.983131,484.208710 118.650970,465.881317 112.260117,440.928864 
	C106.638481,418.979797 90.624535,407.880646 68.344620,405.788269 
	C63.104389,382.529083 72.159683,309.122711 83.720291,284.172241 
	C89.002518,289.801483 93.750954,295.323853 98.977432,300.349060 
	C118.262253,318.891113 141.638062,327.568451 168.143616,328.130280 
	C212.552002,329.071564 250.025742,311.533417 283.412750,283.901520 
	C292.843689,276.096252 301.197510,266.989563 310.241699,258.290924 
	C316.434509,270.298096 325.709198,279.562714 339.172546,283.531403 
	C349.799347,286.663910 360.610046,286.413239 370.993988,282.116608 
	C390.830688,273.908630 403.013489,252.512070 399.607025,232.196609 
	C395.348572,206.799637 378.760559,193.944733 347.090485,191.730621 
	C360.377289,143.674194 357.236053,99.372513 316.415802,63.585220 
	C354.243286,53.375858 391.787170,51.225307 430.759369,54.041054 
	C420.096985,67.069931 416.601746,81.182831 420.216125,96.668427 
	C422.843781,107.926407 429.175903,117.048759 438.610321,123.772476 
	C455.842743,136.053680 485.299622,137.340225 504.763275,112.435684 
	C539.967346,250.000961 483.187347,397.400360 356.088593,469.509735 
	C357.103088,467.704803 357.527649,466.606171 358.235870,465.739258 
	C382.435089,436.118927 377.047577,394.420868 345.747711,369.704895 
	C307.255280,339.309296 247.735657,342.695496 214.906616,377.600586 
	C186.312378,408.003052 189.976257,451.416168 223.301346,478.144135 
	C240.511169,491.947021 260.500519,498.391357 282.461456,498.962646 
	C283.402893,498.987152 284.345490,498.965790 285.287567,498.965790 
	C285.371552,499.473419 285.455536,499.981079 285.539551,500.488708 
	C273.789886,502.956543 262.040222,505.424377 249.855804,507.936188 
z"/>
<path fill="#237660" opacity="1.000000" stroke="none" 
	d="
M652.348633,279.300171 
	C651.752197,293.086121 651.297363,306.880310 650.492126,320.654053 
	C650.154419,326.430450 649.074646,332.163513 648.230835,338.702454 
	C620.014893,319.571228 590.639160,316.032135 560.339539,330.396423 
	C538.229004,340.878479 523.458679,358.589142 516.417480,382.150970 
	C502.544983,428.572296 530.860168,480.104919 585.668579,489.692169 
	C562.339233,523.018372 533.851807,550.588440 500.982971,573.776672 
	C446.316315,612.342773 385.227631,631.519836 333.639069,636.164978 
	C345.926605,625.684143 353.136139,613.343140 352.976715,597.581238 
	C352.817810,581.872559 346.249603,569.266113 333.733429,559.917358 
	C314.290283,545.394714 286.235962,548.858337 270.552216,567.014526 
	C255.838837,584.047302 252.301086,614.933167 279.966339,637.321411 
	C272.214569,636.425842 265.736328,635.919067 259.340302,634.897522 
	C228.291901,629.938904 197.258820,624.882507 166.246231,619.705627 
	C164.133591,619.352966 161.773636,618.167847 160.302597,616.629700 
	C134.904587,590.073364 114.178642,560.275391 98.606148,526.947083 
	C98.263107,526.212891 98.001015,525.440979 97.339783,523.777588 
	C103.773613,524.723206 109.547287,525.583557 115.324570,526.418945 
	C144.826294,530.684998 174.349808,535.189575 204.232239,534.991577 
	C257.602051,534.638000 308.165039,521.907410 355.166382,496.839752 
	C442.492310,450.265503 499.707916,378.973236 526.330933,283.576233 
	C538.154175,241.210617 540.389771,198.010483 535.377502,154.340607 
	C532.487366,129.159698 527.694397,104.384201 521.093567,79.934952 
	C520.761292,78.704391 520.570435,77.435669 520.057556,74.936264 
	C530.234070,79.651344 539.511292,83.949760 548.921997,88.997833 
	C549.758972,105.785744 549.114197,122.024040 551.457703,137.818954 
	C555.805237,167.121231 567.376648,193.857925 584.395569,218.233093 
	C602.320496,243.905838 624.910400,264.271454 652.348633,279.300171 
z"/>
<path fill="#237760" opacity="1.000000" stroke="none" 
	d="
M721.955322,302.036591 
	C724.565186,314.375336 727.805420,326.620361 729.655945,339.071960 
	C733.712708,366.368744 734.230347,393.808563 731.117676,421.284363 
	C722.288147,499.222076 690.224976,566.053467 634.841003,621.515808 
	C623.247681,633.125549 610.363281,643.446045 597.851562,654.558044 
	C582.825684,623.835999 552.051208,619.387878 531.429443,630.268738 
	C507.733948,642.771423 501.254608,667.816345 514.313416,698.513367 
	C464.434479,717.580505 412.867828,722.416260 360.252563,716.510254 
	C287.905487,708.389404 226.949707,674.496765 196.847946,648.703247 
	C207.489685,650.362976 217.426407,652.008667 227.392822,653.448914 
	C255.556946,657.518860 283.600800,662.513245 312.304504,661.188843 
	C366.266479,658.699036 417.484741,645.818604 465.766022,621.553223 
	C525.691650,591.435791 574.199341,548.313904 611.647583,492.737457 
	C613.757507,489.606049 616.185547,487.900726 619.800171,486.999725 
	C654.014709,478.471710 680.481567,444.563995 681.180786,409.460449 
	C681.515564,392.651398 677.869507,377.161774 669.499695,362.652649 
	C668.587708,361.071777 667.954590,358.816589 668.303223,357.099854 
	C672.691345,335.492096 674.871460,313.652863 676.105469,291.300598 
	C678.172546,291.506042 679.706360,292.204865 681.315430,292.583313 
	C694.854248,295.767639 708.406860,298.893311 721.955322,302.036591 
z"/>
<path fill="#23765F" opacity="1.000000" stroke="none" 
	d="
M114.234566,215.247864 
	C143.070724,167.362122 181.282913,129.293625 228.688538,100.495232 
	C247.632462,88.987007 267.708221,79.723465 288.632721,72.369354 
	C289.840240,71.944969 291.982086,71.859200 292.653870,72.580284 
	C301.815552,82.414383 312.202148,91.492294 319.504486,102.587769 
	C331.972412,121.532097 333.112457,143.265793 329.442932,165.197189 
	C324.059692,197.371109 308.716003,224.547241 287.048859,248.499527 
	C265.612518,272.196716 240.104919,289.712860 209.525955,299.354736 
	C184.705521,307.180908 159.621658,308.928375 135.497025,297.574005 
	C126.379883,293.282990 118.444870,286.180969 110.577133,279.632111 
	C104.595131,274.652893 99.699821,268.388580 94.055588,262.972656 
	C91.916420,260.920044 91.921570,259.226746 93.106476,256.898438 
	C100.112328,243.132095 107.069405,229.340927 114.234566,215.247864 
z"/>
<path fill="#84B2A7" opacity="1.000000" stroke="none" 
	d="
M652.494995,278.852478 
	C624.910400,264.271454 602.320496,243.905838 584.395569,218.233093 
	C567.376648,193.857925 555.805237,167.121231 551.457703,137.818954 
	C549.114197,122.024040 549.758972,105.785744 549.136841,89.276428 
	C562.540833,96.577286 576.613708,103.322922 588.999268,112.376808 
	C605.049622,124.109749 619.619324,137.850403 635.109009,150.377350 
	C641.034180,155.169189 640.590454,161.877487 641.683105,168.015579 
	C647.947144,203.205017 651.662231,238.681961 652.762146,274.419495 
	C652.802917,275.745453 652.685242,277.076263 652.494995,278.852478 
z"/>
<path fill="#2E9A7E" opacity="1.000000" stroke="none" 
	d="
M637.126282,422.990417 
	C628.100281,441.859558 611.588928,451.075775 591.089294,448.969238 
	C573.861023,447.198853 558.827271,433.238037 554.707214,415.183655 
	C549.358337,391.744293 564.526428,368.587677 588.591309,363.453766 
	C611.543030,358.557373 635.455017,374.073059 639.639221,397.142395 
	C641.182556,405.651489 641.059509,414.418427 637.126282,422.990417 
z"/>
<path fill="#85B3A8" opacity="1.000000" stroke="none" 
	d="
M721.989990,301.637634 
	C708.406860,298.893311 694.854248,295.767639 681.315430,292.583313 
	C679.706360,292.204865 678.172546,291.506042 676.215088,290.889038 
	C676.021973,257.592529 673.373901,224.546722 669.426331,191.442001 
	C694.097046,224.704361 711.679504,261.234955 721.989990,301.637634 
z"/>
<path fill="#2F9B7F" opacity="1.000000" stroke="none" 
	d="
M294.193848,611.958557 
	C285.473907,606.521179 281.545929,598.825439 282.405670,589.070801 
	C283.272156,579.239990 288.671326,572.222046 297.976410,569.062012 
	C307.097137,565.964539 315.733368,567.545715 322.862000,574.462952 
	C329.886169,581.278809 331.918854,591.492554 327.900299,600.675354 
	C324.039429,609.497803 317.101166,614.653564 307.442810,614.834473 
	C303.155243,614.914795 298.831970,613.087952 294.193848,611.958557 
z"/>
<path fill="#237660" opacity="1.000000" stroke="none" 
	d="
M355.792236,469.750732 
	C355.525909,469.754089 355.457031,469.557251 355.388123,469.360382 
	C355.588654,469.423767 355.789154,469.487122 355.792236,469.750732 
z"/>
</svg>